<?xml version="1.0" encoding="UTF-8" standalone="no"?>
<svg xmlns:ffdec="https://www.free-decompiler.com/flash" xmlns:xlink="http://www.w3.org/1999/xlink" ffdec:objectType="shape" height="36.95px" width="53.2px" xmlns="http://www.w3.org/2000/svg">
  <g transform="matrix(1.0, 0.0, 0.0, 1.0, 0.0, 0.0)">
    <path d="M40.7 2.2 L40.8 3.35 Q40.7 4.6 40.05 5.65 L38.3 7.4 38.0 7.6 38.4 7.8 38.8 8.0 39.95 8.85 40.7 10.05 41.45 11.55 42.55 12.75 43.25 13.55 42.7 14.6 44.2 15.85 45.7 17.0 47.2 17.9 48.75 18.75 49.25 19.15 49.75 19.4 52.1 19.75 52.2 19.5 52.25 20.15 53.15 20.1 53.2 20.3 51.25 21.3 49.1 21.7 48.95 22.35 48.8 22.95 48.1 21.9 47.5 20.9 47.35 19.8 45.6 19.35 43.8 18.85 42.0 18.1 Q41.1 17.6 40.4 16.9 39.35 16.05 38.1 15.45 L37.65 16.9 Q37.3 17.45 36.45 17.55 L36.3 17.7 36.15 17.9 35.2 19.25 34.25 20.6 34.05 21.05 34.05 21.3 34.2 21.5 35.65 23.65 37.15 25.8 Q37.8 26.55 38.65 27.1 L38.4 27.55 40.4 29.1 42.4 30.6 42.85 31.2 42.7 31.95 42.05 33.2 41.6 33.55 41.05 33.7 39.4 33.95 37.75 34.1 37.1 34.1 36.5 33.8 36.25 33.7 36.0 33.75 34.9 35.1 34.6 36.35 34.35 36.8 33.85 36.95 33.4 36.8 33.05 36.45 32.9 35.95 32.9 35.45 33.1 33.35 33.35 31.25 33.95 31.3 34.1 31.15 33.65 30.65 26.05 25.75 25.6 25.6 23.95 25.5 22.45 24.7 21.35 24.15 18.25 22.95 17.25 22.55 16.9 22.65 16.6 22.9 13.55 26.7 9.85 29.9 9.3 30.6 8.65 31.4 7.85 32.15 6.8 32.25 6.7 32.5 6.7 32.7 7.05 33.15 6.6 33.95 6.15 34.7 5.65 35.15 5.1 35.05 3.25 33.7 0.5 31.7 0.25 31.4 0.05 31.15 0.05 30.6 0.2 30.0 Q0.25 29.8 0.55 29.75 L1.05 29.7 2.0 29.8 2.9 29.95 3.65 29.75 3.1 28.85 3.7 28.1 4.4 27.1 Q4.95 25.8 5.8 24.8 L7.65 22.8 8.6 21.8 9.55 20.8 9.95 20.3 10.15 19.6 10.45 18.9 10.9 18.25 Q12.05 17.2 13.4 16.5 14.7 15.7 16.2 15.35 16.8 15.2 17.4 15.35 L20.25 16.25 21.9 16.5 23.5 16.25 23.7 16.05 23.85 15.75 24.05 13.85 23.9 11.95 Q23.75 11.55 23.9 11.15 L24.2 10.35 Q24.45 10.0 24.85 9.8 L25.7 9.55 25.7 9.25 25.75 8.8 21.9 8.6 19.6 8.35 17.3 7.65 14.1 6.6 Q13.1 6.25 12.25 6.6 11.4 7.0 10.6 7.65 L10.4 7.8 10.2 8.0 10.0 7.9 10.35 7.05 10.65 6.35 10.15 5.9 8.05 4.9 7.9 4.75 7.8 4.6 7.9 4.4 9.55 4.8 11.25 5.15 12.65 5.0 13.15 4.85 15.0 4.9 16.8 4.85 19.35 5.05 Q20.6 5.3 21.8 5.85 L23.3 6.1 23.4 5.15 23.5 4.15 29.25 3.9 Q30.9 4.25 32.35 5.0 L32.95 5.25 33.45 5.15 33.55 4.65 Q33.45 3.35 34.0 2.15 34.6 1.05 35.7 0.35 L36.6 0.05 37.5 0.05 Q38.9 0.5 40.05 1.3 40.55 1.65 40.7 2.2" fill="#000000" fill-rule="evenodd" stroke="none"/>
  </g>
</svg>
