<?xml version="1.0" encoding="UTF-8" standalone="no"?>
<svg xmlns:ffdec="https://www.free-decompiler.com/flash" xmlns:xlink="http://www.w3.org/1999/xlink" ffdec:objectType="shape" height="70.6px" width="63.7px" xmlns="http://www.w3.org/2000/svg">
  <g transform="matrix(1.0, 0.0, 0.0, 1.0, 0.0, 0.0)">
    <path d="M51.6 9.15 Q51.7 12.0 50.3 14.65 48.9 17.25 46.5 18.95 L44.85 19.9 44.3 20.1 44.9 19.8 46.2 19.1 Q48.05 17.75 49.15 15.75 50.25 13.8 50.5 11.5 50.5 9.15 49.3 7.1 48.1 5.0 45.9 4.2 L42.1 4.0 Q40.2 4.4 38.7 5.8 37.85 6.65 37.35 7.8 37.9 6.7 38.8 5.85 40.25 4.5 42.15 4.1 L45.9 4.35 Q48.0 5.15 49.15 7.15 50.35 9.15 50.3 11.5 50.1 13.75 49.0 15.7 47.95 17.6 46.1 18.95 L45.65 19.25 47.55 17.5 48.9 15.35 Q49.4 14.0 49.4 12.6 49.4 11.2 48.9 9.9 48.2 8.6 47.15 7.75 46.0 6.9 44.6 6.6 L42.05 6.75 Q40.8 7.2 39.9 8.2 39.1 9.15 38.8 10.3 38.55 11.45 38.8 12.65 39.05 13.65 39.75 14.45 L41.3 15.7 42.95 16.0 Q43.8 15.9 44.5 15.4 L45.3 14.4 45.5 13.2 45.4 12.5 45.1 11.85 44.55 11.3 43.75 11.15 42.85 11.35 42.15 12.05 Q41.9 12.5 42.0 13.05 L42.4 13.9 43.1 14.35 43.95 14.2 44.5 13.55 44.5 12.7 44.0 12.05 43.15 11.9 43.65 11.7 44.2 11.65 44.7 11.7 45.1 12.0 45.35 12.55 45.45 13.2 45.25 14.4 44.45 15.35 Q43.75 15.8 42.95 15.85 L41.35 15.55 Q40.5 15.1 39.9 14.3 39.25 13.55 39.05 12.6 38.8 11.45 39.05 10.35 39.35 9.3 40.1 8.4 40.95 7.45 42.1 7.05 L44.55 6.9 Q45.85 7.15 46.9 8.0 47.95 8.85 48.55 10.05 49.1 11.3 49.1 12.65 49.1 14.0 48.55 15.2 L47.25 17.35 45.5 19.05 43.5 20.05 41.25 20.5 39.75 20.45 37.5 19.65 38.25 19.65 37.45 19.05 36.75 18.25 36.25 17.95 35.7 17.8 34.1 17.6 33.35 17.2 32.75 16.6 32.5 16.25 32.5 16.3 32.85 17.3 33.15 18.15 33.35 18.45 33.55 18.85 33.8 19.15 Q34.65 20.35 35.6 20.65 L37.75 21.45 37.55 21.25 37.4 21.0 37.3 20.75 37.85 21.1 42.35 21.35 Q44.6 21.25 46.75 20.6 48.6 20.05 50.25 19.15 L53.4 17.1 54.8 15.75 55.75 14.0 55.85 13.3 55.65 13.05 55.3 13.1 54.85 13.6 52.65 16.25 49.8 18.5 Q48.3 19.45 46.6 20.05 L42.85 20.85 44.3 20.45 Q47.9 18.95 50.2 15.95 52.6 12.95 53.25 9.1 53.45 7.3 53.05 5.5 52.65 3.7 51.7 2.15 51.2 1.35 50.5 0.85 49.8 0.3 49.0 0.05 L48.4 0.05 47.95 0.45 47.85 0.9 46.9 0.5 Q45.95 0.1 45.0 0.05 L42.95 0.1 41.9 0.45 40.9 0.95 40.15 1.75 40.25 2.3 40.7 2.5 41.7 2.4 42.45 2.25 43.5 2.05 44.95 2.0 46.35 2.2 48.35 3.0 Q49.3 3.55 50.0 4.35 L51.15 6.65 Q51.55 7.85 51.6 9.15 M40.6 40.25 Q42.45 44.65 43.05 49.3 43.65 53.95 42.5 58.4 41.35 62.8 38.0 66.55 L35.8 68.45 Q34.6 69.3 33.2 69.8 31.8 70.5 30.3 70.6 L27.3 70.25 27.0 70.0 Q26.15 69.75 25.4 69.2 L24.0 68.0 25.9 69.25 26.05 69.35 26.15 69.4 Q27.65 69.75 28.75 68.95 29.95 68.15 30.35 66.4 31.8 67.4 33.45 67.05 35.1 66.75 36.65 65.55 38.25 64.45 39.5 62.95 L41.35 60.3 41.35 60.35 Q43.15 55.75 42.85 50.75 42.55 45.75 40.7 41.0 38.9 36.2 36.05 32.25 L35.85 32.25 35.6 32.25 35.25 32.15 36.05 32.85 Q37.9 35.85 38.8 38.95 39.7 42.05 40.0 44.15 L40.25 46.35 Q40.45 49.4 40.05 52.35 39.65 55.35 38.65 58.2 38.25 59.75 37.45 61.05 L35.45 63.45 34.4 63.95 33.95 63.8 Q33.75 63.65 33.85 63.3 L34.3 62.3 Q35.85 60.0 37.0 57.5 38.2 54.9 38.8 52.1 39.35 49.3 39.35 46.35 L39.05 43.4 38.45 40.45 38.65 42.75 Q38.75 46.0 37.75 49.05 36.8 52.15 34.85 54.75 33.4 57.25 31.3 59.15 29.25 61.15 26.7 62.4 24.05 63.75 21.2 64.1 L15.45 63.95 Q13.3 63.3 12.25 62.5 L10.85 61.05 Q10.55 60.65 10.55 60.2 10.55 59.7 10.9 59.3 11.15 59.05 11.5 58.95 L10.35 57.75 Q9.25 56.55 8.6 55.1 7.9 53.7 7.65 52.1 L7.5 50.3 7.8 48.5 Q8.1 47.3 8.55 47.0 9.0 46.65 9.35 46.8 L9.95 47.4 10.3 48.9 10.5 50.15 10.75 51.8 11.5 54.0 12.6 56.0 Q13.55 57.4 14.9 58.5 L17.85 60.2 21.9 60.7 Q23.9 60.6 25.9 59.95 28.75 59.05 31.1 57.1 33.45 55.15 35.2 52.5 36.85 49.85 37.6 46.95 L37.65 46.75 37.6 46.9 Q38.1 45.15 38.15 43.4 L38.05 41.0 38.05 41.65 38.05 44.05 37.65 46.35 Q36.65 49.9 34.35 52.65 32.05 55.35 28.75 56.95 26.45 57.85 23.95 57.9 21.45 57.9 19.2 57.0 16.95 56.1 15.35 54.2 13.9 52.3 13.3 50.2 12.65 48.1 12.8 46.1 12.95 44.1 13.7 42.6 14.5 40.8 15.9 39.4 17.3 38.05 19.1 37.25 L20.45 36.85 21.25 36.8 20.45 36.9 19.1 37.3 Q17.3 38.1 15.95 39.5 14.6 40.85 13.85 42.65 13.1 44.15 12.95 46.1 12.85 48.1 13.45 50.1 14.1 52.2 15.5 54.05 17.05 55.9 19.25 56.75 21.5 57.65 23.9 57.6 26.35 57.55 28.65 56.7 31.9 55.1 34.15 52.45 36.45 49.75 37.45 46.35 L37.65 45.5 Q37.1 47.45 36.1 49.25 35.05 51.0 33.55 52.4 31.9 54.0 29.8 54.75 27.7 55.5 25.45 55.45 23.15 55.2 21.25 54.0 19.35 52.85 18.1 50.95 17.05 49.05 17.0 46.95 16.95 44.9 17.95 43.0 18.95 41.3 20.5 40.25 22.05 39.25 23.95 38.95 L27.15 39.3 Q28.7 39.8 29.95 41.0 30.9 41.95 31.25 43.25 31.6 44.55 31.3 45.9 30.95 46.9 30.2 47.6 29.5 48.3 28.55 48.65 L27.4 48.85 26.3 48.75 Q25.7 48.6 25.2 48.25 24.7 47.8 24.45 47.15 24.15 46.4 24.25 45.65 24.4 44.85 24.95 44.2 25.5 43.65 26.3 43.45 L27.85 43.6 Q28.5 43.85 28.85 44.45 29.25 45.0 29.15 45.75 29.0 46.45 28.45 46.9 27.95 47.35 27.25 47.4 26.5 47.4 26.0 46.95 25.45 46.55 25.25 45.8 L25.25 46.7 25.5 47.55 25.85 48.2 26.45 48.65 27.5 48.75 28.5 48.55 30.1 47.5 Q30.8 46.8 31.1 45.85 31.4 44.55 31.05 43.3 30.7 42.05 29.75 41.15 28.55 40.05 27.05 39.6 L24.0 39.3 Q22.2 39.6 20.75 40.6 19.25 41.6 18.35 43.15 17.45 45.0 17.45 46.95 17.55 48.9 18.55 50.65 19.75 52.5 21.55 53.6 23.35 54.7 25.5 54.9 27.65 54.95 29.65 54.25 31.65 53.5 33.2 52.05 34.65 50.65 35.7 48.95 36.7 47.3 37.2 45.35 37.7 43.6 37.65 41.8 37.6 40.0 37.05 38.25 L36.15 36.0 Q35.1 34.4 33.7 33.1 L34.1 34.25 Q33.55 33.6 32.75 33.35 L31.2 32.75 30.5 32.2 29.95 31.45 28.75 29.15 27.75 28.25 26.5 27.7 25.35 27.55 25.9 27.5 27.6 27.45 29.0 27.5 29.65 27.55 30.3 27.7 30.9 27.85 Q32.45 28.25 33.3 28.9 L34.85 30.5 36.45 32.4 36.1 32.25 Q38.75 35.9 40.6 40.25 M40.7 37.35 L42.85 41.3 Q43.9 43.15 44.6 43.85 L46.35 45.2 48.3 46.25 50.5 46.6 Q51.55 46.5 52.0 45.65 L52.25 44.75 51.75 43.95 51.35 43.65 51.05 43.15 51.05 42.7 Q51.05 42.45 51.3 42.3 L51.75 42.1 52.2 42.3 Q52.9 42.7 53.3 43.55 53.6 44.5 52.9 45.9 52.1 47.15 50.5 47.1 48.95 47.05 47.25 46.0 L45.6 44.9 49.0 47.1 Q50.9 47.95 52.9 48.2 L55.65 47.65 56.8 46.55 Q57.3 45.85 57.35 45.0 57.4 44.1 56.95 43.2 L55.45 41.35 Q54.45 40.3 54.55 39.65 54.65 39.0 54.95 38.9 L56.25 39.1 Q57.2 39.5 58.1 41.65 58.9 44.1 58.2 45.55 57.5 47.0 56.4 47.55 L54.8 48.1 53.1 48.2 53.2 48.25 Q55.2 48.4 56.9 47.7 58.65 47.05 59.85 45.85 61.05 44.75 61.35 43.65 61.75 42.35 61.6 41.0 61.4 39.7 60.75 38.55 60.3 37.9 60.1 36.8 59.9 35.75 60.85 35.2 L62.05 35.35 63.0 36.55 63.55 38.2 Q63.95 40.6 63.15 42.75 62.4 44.95 60.55 46.55 58.45 48.25 55.85 48.65 53.25 49.0 49.8 47.9 48.1 47.35 46.5 46.35 44.9 45.3 43.3 43.1 41.7 40.95 39.95 37.1 38.7 34.5 37.05 32.15 35.45 29.75 33.5 27.65 L35.7 29.6 38.65 33.65 40.7 37.35 M41.55 25.7 Q42.1 26.9 42.2 28.4 42.3 29.95 42.65 31.3 43.0 32.65 44.35 33.4 42.5 32.55 41.2 31.2 39.9 29.85 39.6 27.6 39.35 28.95 39.5 30.25 37.75 29.55 37.25 28.7 36.75 27.85 36.65 26.75 36.6 25.6 36.15 24.3 35.75 22.95 34.25 21.4 L33.85 21.15 Q35.3 21.35 36.8 21.9 38.3 22.45 39.6 23.4 40.85 24.35 41.55 25.7 M51.55 28.9 Q51.95 28.25 52.65 28.05 53.6 27.85 54.05 28.3 54.55 28.8 54.65 29.55 54.8 30.35 54.5 31.0 L53.25 32.55 Q52.5 33.2 51.6 33.55 50.35 34.1 48.85 34.15 L45.95 33.75 Q44.6 33.2 43.75 32.05 L43.1 30.75 42.85 29.3 42.5 27.05 Q42.3 25.9 41.6 25.1 43.0 26.55 44.05 28.25 45.15 29.95 46.55 31.45 47.8 32.7 49.55 33.2 51.25 33.65 52.85 32.65 L53.95 31.55 54.3 30.05 Q54.25 29.3 53.85 29.05 53.45 28.75 52.85 29.3 L53.6 29.25 53.9 29.95 53.75 30.45 53.4 30.9 52.9 31.1 52.35 31.15 Q51.55 30.9 51.4 30.25 51.25 29.6 51.55 28.9 M37.35 7.8 Q36.8 8.9 36.75 10.15 L36.8 11.05 37.0 11.65 36.85 11.05 36.8 10.15 Q36.85 8.9 37.35 7.8 M23.55 67.5 L24.0 68.0 23.8 67.85 23.65 67.65 23.55 67.5 M12.95 36.2 Q14.9 35.1 16.05 33.35 L18.45 30.1 Q19.75 28.6 21.9 28.1 L23.85 27.8 25.85 27.9 25.9 28.0 24.35 27.9 22.8 28.0 24.05 28.05 Q26.6 28.35 28.35 30.0 30.1 31.6 29.95 33.9 29.75 35.85 28.4 37.1 27.05 38.3 25.1 38.3 23.65 38.1 22.7 37.15 21.75 36.25 21.85 34.8 L22.05 33.7 22.75 32.75 23.75 32.2 24.9 32.15 Q26.15 32.3 26.65 33.1 27.1 33.9 26.7 34.65 L26.45 35.35 26.9 35.75 Q27.45 35.95 28.0 35.55 28.5 35.15 28.65 33.7 28.85 32.2 27.45 31.0 26.05 29.8 23.75 29.55 21.35 29.45 19.95 30.55 18.5 31.7 17.4 33.35 L14.75 36.15 Q12.1 38.3 9.55 38.35 7.05 38.4 4.15 36.45 6.3 37.5 8.6 37.4 10.9 37.35 12.95 36.2 M12.75 23.35 L12.25 22.3 11.85 21.25 Q11.8 20.95 12.05 20.4 L12.2 19.65 Q12.85 20.7 13.95 21.75 15.05 22.75 15.55 23.8 16.1 24.85 15.1 26.05 L16.8 25.5 Q15.75 29.2 13.15 30.85 10.55 32.55 7.0 31.75 L8.0 31.45 8.6 31.3 9.1 30.9 9.4 29.7 9.35 28.4 9.3 27.45 Q9.4 27.15 9.85 26.75 L10.6 26.3 11.05 25.6 11.4 26.25 Q11.55 26.65 11.2 26.9 12.2 26.45 12.65 25.45 13.1 24.45 12.75 23.35 M12.5 17.15 L14.45 18.3 Q13.0 17.0 12.65 15.45 12.35 13.9 12.6 12.2 12.5 13.45 13.3 14.4 L15.1 16.1 16.8 17.8 Q17.65 19.5 17.4 21.65 17.2 23.75 16.3 25.45 L16.35 25.05 Q15.95 23.25 15.2 22.3 L13.7 20.85 Q12.95 20.25 12.55 19.45 12.2 18.7 12.5 17.15 M34.1 20.7 Q33.55 20.95 33.2 21.3 L32.5 21.95 Q34.25 21.7 34.95 22.95 35.6 24.15 35.9 25.9 36.2 27.6 36.8 28.9 L36.0 28.65 35.0 28.25 34.25 27.15 33.55 26.0 Q32.65 24.9 31.55 24.75 30.4 24.55 29.1 25.2 29.55 25.05 29.9 25.4 L30.25 26.2 29.35 26.15 28.4 26.6 27.3 26.65 26.45 26.05 25.25 25.15 23.9 24.65 23.15 24.9 22.55 25.4 21.6 26.2 Q23.25 22.2 26.5 20.7 29.8 19.25 34.1 20.7 M20.4 19.8 L22.05 19.35 23.95 18.9 25.15 17.2 Q26.05 16.35 27.25 16.05 L29.65 16.1 Q30.55 16.3 31.25 16.95 L32.35 18.5 33.0 19.85 Q29.9 18.65 27.65 19.25 25.4 19.85 23.75 21.6 22.1 23.3 20.8 25.55 L18.3 29.85 Q17.1 31.9 15.7 33.15 13.45 35.1 10.15 35.8 6.85 36.55 3.5 35.05 2.15 34.4 1.25 33.3 0.35 32.15 0.1 30.65 -0.15 29.15 0.4 27.75 0.9 26.35 2.0 25.35 2.85 24.6 4.25 24.3 L6.8 24.35 Q8.0 24.7 8.4 26.05 L8.5 27.1 8.1 28.05 7.25 28.7 6.25 28.9 Q5.5 28.75 4.95 28.25 4.5 27.7 4.5 26.9 L4.75 26.2 4.85 25.6 3.8 25.5 2.8 26.0 Q1.85 26.65 1.35 27.65 0.8 28.65 0.85 29.85 0.95 30.65 1.25 30.9 1.6 31.25 1.8 31.05 2.0 30.8 1.65 30.0 2.3 30.55 2.45 31.4 L2.8 33.0 Q3.05 33.8 3.65 34.4 4.85 35.35 6.55 35.45 8.35 35.5 9.65 34.8 L10.65 34.1 11.65 32.95 Q11.95 32.35 11.65 31.8 12.65 33.1 13.7 32.95 14.7 32.8 15.6 31.85 L17.15 29.6 18.0 27.55 18.25 24.4 Q18.15 22.6 18.85 21.25 19.55 20.15 20.4 19.8 M20.6 7.15 Q21.2 7.95 20.35 8.85 19.85 9.25 19.2 9.15 18.55 9.1 18.15 8.65 17.8 8.25 18.0 7.55 L18.25 7.15 18.65 6.95 19.15 6.9 19.6 7.0 19.9 7.6 19.55 8.1 Q20.2 7.95 20.2 7.5 L19.75 6.7 Q19.15 6.3 18.5 6.25 L17.2 6.55 Q15.7 7.15 15.2 8.6 14.7 10.05 15.05 11.55 15.45 13.25 16.15 14.85 16.85 16.4 17.2 18.05 16.95 17.15 16.25 16.5 L14.75 15.2 13.9 14.35 13.3 13.3 Q12.7 11.45 13.55 9.7 14.4 7.95 15.95 7.0 16.65 6.45 17.45 6.3 L19.1 6.1 Q20.05 6.35 20.6 7.15" fill="#000000" fill-rule="evenodd" stroke="none"/>
  </g>
</svg>
