<?xml version="1.0" encoding="UTF-8" standalone="no"?>
<svg xmlns:ffdec="https://www.free-decompiler.com/flash" xmlns:xlink="http://www.w3.org/1999/xlink" ffdec:objectType="shape" height="63.65px" width="40.15px" xmlns="http://www.w3.org/2000/svg">
  <g transform="matrix(1.0, 0.0, 0.0, 1.0, 0.0, 0.0)">
    <path d="M14.85 42.85 L14.65 44.2 15.0 48.95 Q15.1 50.35 14.85 51.4 14.7 52.45 14.2 53.05 L13.7 53.45 Q15.5 57.75 18.65 59.75 21.85 61.75 25.5 62.15 29.2 62.6 32.55 62.1 L38.0 61.0 39.5 60.6 40.15 60.4 39.5 60.65 39.0 60.85 37.85 61.25 Q30.5 63.3 25.2 62.55 19.9 61.8 16.6 59.25 13.35 56.75 12.15 53.55 L11.9 53.45 Q10.85 52.75 10.95 51.0 11.1 49.25 12.3 47.25 L13.9 44.6 14.85 42.85 15.0 42.5 15.0 42.6 14.85 42.85 M15.95 12.35 Q16.2 10.1 15.25 7.1 14.15 4.1 12.5 3.0 10.8 1.9 9.5 1.75 L7.95 1.75 6.5 2.15 Q5.35 2.55 4.35 3.55 3.3 4.55 3.5 6.25 L5.05 6.05 6.65 6.1 11.4 6.6 12.7 6.45 Q12.15 6.7 10.95 7.35 L8.25 8.85 7.65 9.15 Q6.45 9.9 4.9 10.05 3.45 10.2 2.15 9.6 0.85 9.05 0.2 7.55 -0.35 5.8 0.5 4.2 1.35 2.7 2.7 1.65 4.05 0.6 4.95 0.35 L6.85 0.05 10.0 0.3 Q11.75 0.7 13.4 2.2 15.05 3.65 16.05 6.75 17.15 10.25 16.55 13.75 15.95 17.3 13.8 20.25 10.7 25.2 9.1 29.05 7.45 32.8 6.9 35.4 6.3 38.0 6.25 39.3 L6.25 40.6 Q6.9 36.35 8.8 33.15 10.7 30.0 13.15 28.05 15.65 26.1 18.2 25.6 L24.9 25.9 Q27.75 26.95 29.45 29.35 31.1 31.75 31.6 35.0 31.9 37.2 31.4 39.05 30.95 40.85 29.8 42.75 L26.75 46.75 27.55 44.8 28.0 42.25 Q28.05 40.95 27.55 40.15 27.0 39.25 26.8 37.45 L26.05 33.7 Q25.5 31.7 23.8 30.2 22.1 28.75 18.5 28.35 14.75 29.2 11.85 32.15 8.9 35.15 7.6 39.45 6.25 43.8 7.3 48.55 8.9 54.7 12.3 57.85 15.65 61.0 19.85 62.05 24.05 63.15 28.0 62.95 L34.7 62.1 37.65 61.4 Q30.4 64.05 23.95 63.55 17.35 63.05 12.7 59.4 8.0 55.65 6.25 48.75 5.0 43.25 5.7 38.35 6.4 33.45 8.05 29.55 9.75 25.6 11.35 22.95 L13.55 19.25 15.0 16.25 Q15.8 14.55 15.95 12.35" fill="#000000" fill-rule="evenodd" stroke="none"/>
  </g>
</svg>
