<?xml version="1.0" encoding="UTF-8" standalone="no"?>
<svg xmlns:ffdec="https://www.free-decompiler.com/flash" xmlns:xlink="http://www.w3.org/1999/xlink" ffdec:objectType="shape" height="40.25px" width="32.35px" xmlns="http://www.w3.org/2000/svg">
  <g transform="matrix(1.0, 0.0, 0.0, 1.0, 0.0, 0.0)">
    <path d="M27.0 29.55 L27.1 29.45 27.2 29.45 27.3 29.55 27.3 29.65 27.25 29.7 27.1 29.7 27.0 29.65 27.0 29.55 M16.3 37.35 L16.35 37.4 16.4 37.45 16.4 37.6 16.35 37.7 16.25 37.65 16.2 37.55 16.25 37.4 16.25 37.35 16.3 37.35 M10.05 40.2 L9.85 40.25 9.65 40.25 8.95 39.9 8.85 39.65 9.0 38.95 9.55 38.55 9.7 38.5 10.1 38.55 10.45 38.7 10.6 39.1 10.6 39.25 10.6 39.4 10.45 39.9 10.05 40.2 M6.05 30.65 L6.1 30.4 6.35 30.15 6.95 30.05 7.15 30.1 7.4 30.1 7.75 30.3 7.8 30.7 7.65 31.15 7.35 31.45 6.85 31.6 6.4 31.45 6.1 31.05 6.05 30.65 M19.85 33.6 L20.0 33.85 19.95 34.0 19.85 34.15 19.7 34.15 19.5 34.1 19.45 33.85 19.5 33.75 19.65 33.65 19.85 33.6 M11.95 35.6 L12.0 35.6 12.0 35.65 11.95 35.6 M10.9 30.8 L11.05 30.8 11.25 30.8 11.0 30.85 10.9 30.8 M10.85 30.55 L10.85 30.5 11.2 30.55 11.05 30.65 10.85 30.65 10.8 30.6 10.85 30.55 M10.2 30.9 L10.35 30.9 10.35 30.95 10.2 31.0 10.2 30.9 M12.45 28.1 L12.3 28.1 12.2 28.1 12.35 28.05 12.45 28.1 M18.35 27.7 L18.55 27.75 18.65 27.9 18.8 28.1 19.05 28.1 19.15 28.1 19.35 28.25 19.9 28.9 20.15 29.3 20.45 30.0 20.55 30.15 20.55 31.3 20.55 31.7 20.4 32.0 20.25 32.4 20.25 32.6 20.15 32.75 19.9 33.0 19.6 33.3 19.4 33.45 18.6 34.05 Q18.1 34.3 17.7 34.7 L17.45 34.9 17.1 35.05 16.9 35.0 16.7 35.1 16.4 35.3 16.15 35.6 16.1 35.75 16.0 35.8 15.55 35.85 15.35 35.75 Q15.25 35.6 15.15 35.6 L14.9 35.65 14.75 35.75 14.3 36.15 14.15 37.0 14.05 37.35 13.35 37.95 13.1 38.05 12.85 37.95 12.7 37.85 12.6 37.55 12.5 37.5 12.45 37.5 12.35 37.6 12.1 37.75 11.85 37.65 11.8 37.55 11.85 37.25 12.2 37.05 12.3 37.1 12.4 37.15 12.55 37.15 12.65 36.95 Q12.75 36.55 13.05 36.3 L13.15 36.2 13.4 35.75 13.4 35.2 13.3 34.85 13.05 34.65 12.95 34.5 12.85 34.2 12.65 34.0 12.5 33.85 12.35 33.75 12.1 33.6 12.2 33.45 12.35 33.35 12.45 33.15 12.35 32.7 12.35 32.65 12.25 32.55 12.3 32.4 12.25 32.0 12.2 31.7 12.25 31.35 12.0 31.05 11.7 30.75 11.65 30.6 11.65 30.4 12.45 30.25 12.7 30.0 12.75 29.85 12.6 29.7 12.45 29.6 12.25 29.45 12.2 29.4 12.25 29.35 12.7 29.25 12.8 29.15 12.8 29.05 12.8 28.65 12.8 28.35 12.7 28.1 13.0 28.2 13.4 28.25 13.55 28.2 13.75 27.9 13.7 27.55 13.6 27.35 13.65 27.3 13.7 27.3 13.85 27.3 13.95 27.4 14.25 27.55 14.5 27.45 14.95 27.4 15.45 27.35 15.9 27.2 16.0 26.9 16.2 26.85 16.4 26.85 16.85 26.9 17.2 26.95 17.4 27.15 17.7 27.45 18.0 27.7 18.35 27.7 M12.6 21.5 L12.5 21.65 12.3 21.8 12.05 21.75 11.85 21.6 11.8 21.35 11.85 21.15 12.05 21.0 12.35 20.95 12.5 21.0 12.6 21.1 12.7 21.3 12.6 21.5 M14.75 19.9 L15.15 20.1 15.45 20.4 15.6 20.8 15.7 21.3 15.65 21.65 15.5 21.9 15.2 22.35 14.65 22.5 13.95 22.5 13.95 22.45 13.9 22.45 Q13.75 22.3 13.6 22.3 L13.35 22.2 13.3 22.05 13.15 21.55 13.0 21.35 13.1 21.1 13.55 20.35 13.7 20.15 Q13.85 20.05 13.95 20.05 L14.2 20.0 14.4 19.9 14.75 19.9 M16.9 16.5 L16.9 16.65 16.8 16.65 16.65 16.55 16.65 16.4 16.75 16.3 16.8 16.3 16.9 16.35 16.9 16.5 M18.8 13.5 L18.75 13.3 18.75 13.25 18.8 13.3 18.8 13.5 18.55 14.0 18.5 13.95 18.45 13.6 18.55 13.45 18.65 13.45 18.8 13.5 M8.7 24.6 Q8.85 24.5 8.95 24.5 L9.8 24.2 9.9 24.05 9.9 23.95 Q9.8 23.75 9.95 23.6 L10.2 23.4 10.35 23.4 10.6 23.45 10.75 23.75 10.7 24.05 10.8 24.1 10.9 24.15 11.4 24.45 Q12.05 24.7 12.2 24.9 L12.6 25.7 12.6 26.1 12.35 26.75 11.9 27.35 11.65 27.7 11.55 27.95 11.4 28.1 11.1 28.25 10.75 28.25 10.35 28.15 10.0 28.1 9.9 28.05 9.55 28.05 9.25 27.95 8.65 27.7 8.5 27.65 8.45 27.55 8.1 27.0 7.9 26.8 7.5 26.85 7.4 26.85 7.4 26.8 7.4 26.6 7.55 26.5 7.75 26.4 7.8 26.3 7.8 26.2 7.75 26.1 7.65 25.75 7.9 25.4 8.2 25.1 8.6 24.75 Q8.6 24.6 8.7 24.6 M6.7 22.65 L6.75 22.6 6.75 22.65 6.7 22.65 6.7 22.7 6.7 22.95 6.85 23.2 6.9 23.3 6.85 23.9 6.8 24.05 Q6.6 24.35 6.55 24.7 L6.45 24.8 Q6.15 25.2 5.65 25.4 L5.25 25.6 4.85 25.7 3.9 25.65 3.35 25.4 3.2 25.15 2.95 24.9 2.75 24.9 2.6 24.85 2.6 24.75 2.75 24.6 2.85 24.35 2.75 24.1 2.6 24.0 2.4 23.7 2.65 23.4 2.85 23.25 2.95 23.15 2.95 23.0 2.9 22.7 3.0 22.55 3.4 22.4 3.6 22.3 3.7 22.1 3.75 21.95 3.9 21.95 4.15 22.0 4.4 21.9 4.95 21.8 5.25 21.8 5.5 21.8 5.7 21.95 Q5.75 22.1 5.9 22.1 L6.15 22.05 6.35 22.45 6.7 22.65 M0.15 24.65 L0.3 24.7 0.3 24.75 0.35 24.8 0.2 24.9 0.15 24.9 0.05 24.85 0.05 24.75 0.15 24.65 M3.3 14.85 L3.2 14.85 3.2 14.8 3.1 14.8 3.15 14.65 Q3.2 14.55 3.3 14.55 L4.4 14.2 4.65 14.2 4.7 14.25 4.7 14.3 4.55 14.4 3.3 14.85 M9.0 13.2 L9.0 13.3 8.85 13.35 8.45 13.35 7.8 13.35 7.6 13.35 7.35 13.15 7.4 13.0 7.5 12.9 7.8 12.85 8.2 12.9 8.7 12.9 8.9 13.0 9.0 13.2 M10.2 7.95 L10.3 8.1 10.35 8.2 10.2 8.45 10.0 8.45 9.8 8.4 9.75 8.25 9.8 8.1 9.9 8.0 10.05 7.95 10.2 7.95 M23.15 7.8 L23.15 7.75 23.5 7.9 23.35 7.9 23.25 7.85 23.15 7.8 M22.8 7.55 L22.8 7.6 22.75 7.65 22.6 7.6 22.55 7.55 22.5 7.45 22.65 7.45 22.8 7.55 M22.75 3.05 L22.7 3.05 22.65 3.0 22.7 3.0 22.75 3.05 M20.4 1.5 L20.4 1.35 20.45 1.25 20.55 1.05 20.65 1.05 20.8 1.1 20.8 1.25 20.8 1.55 20.8 2.0 21.1 2.35 21.35 2.9 21.5 3.05 21.65 3.15 21.75 3.35 21.9 3.5 22.15 3.5 22.15 3.55 21.75 4.05 21.75 4.2 21.75 4.35 21.95 4.65 22.0 4.85 22.0 5.0 22.05 5.25 22.1 5.55 22.0 5.75 22.0 5.95 22.0 6.1 22.1 6.25 22.4 6.45 22.25 6.5 22.1 6.6 22.0 6.9 22.0 7.15 22.05 7.3 21.9 7.45 21.85 7.65 21.9 8.15 21.85 8.35 21.7 8.45 21.5 8.5 21.3 9.05 21.2 9.65 21.2 9.7 21.25 9.7 21.2 9.85 21.1 9.85 21.05 9.75 20.95 9.85 20.8 10.05 20.5 10.15 20.4 10.2 19.8 10.75 19.5 11.1 19.1 11.25 18.85 11.35 18.65 11.6 18.45 11.75 18.2 11.95 18.0 12.1 17.95 12.25 18.15 12.65 18.25 12.95 18.3 13.15 18.2 13.25 18.1 13.35 17.85 13.5 17.8 13.8 17.75 14.0 17.65 14.05 17.6 14.05 17.5 14.0 17.45 13.85 17.45 13.6 17.5 13.25 17.3 13.0 17.05 12.8 17.0 12.8 16.9 12.8 16.85 12.9 16.85 13.0 17.0 13.2 16.8 13.3 16.5 13.6 16.15 14.25 16.1 14.5 16.1 14.65 16.15 14.8 16.1 14.9 16.1 14.95 16.0 15.0 15.55 15.25 15.2 15.6 15.05 15.85 15.05 16.1 15.15 16.3 15.3 16.4 15.3 16.55 15.3 16.75 15.1 16.9 15.0 16.85 14.85 16.4 14.65 15.4 14.65 15.35 14.5 15.35 14.25 15.45 14.1 15.45 14.0 15.4 13.8 15.2 13.7 15.15 13.6 15.2 13.65 15.25 13.85 15.8 13.85 16.0 13.7 16.4 13.55 16.55 13.35 16.6 13.3 16.55 13.25 16.45 13.5 16.0 13.55 15.85 13.55 15.75 13.5 15.65 13.4 15.7 13.25 15.9 13.15 15.9 13.05 15.9 13.0 15.8 13.05 15.75 13.15 15.55 13.1 15.45 12.9 15.35 12.65 15.4 12.15 15.6 11.8 15.85 11.55 16.2 11.4 16.4 11.45 16.7 11.5 16.75 11.5 17.3 11.25 17.75 10.7 18.4 10.1 18.35 9.7 18.4 9.6 18.55 9.25 18.85 8.95 18.9 8.65 18.85 8.45 18.7 8.3 18.45 8.35 18.15 8.6 17.85 8.85 17.7 9.0 17.65 9.1 17.65 9.25 17.5 9.35 16.9 10.2 16.35 10.75 16.3 11.0 16.2 11.15 16.05 11.6 15.35 11.7 15.05 11.65 14.7 11.55 14.65 11.4 14.6 10.6 14.95 10.5 14.95 10.45 14.95 10.45 14.85 10.5 14.8 10.7 14.7 11.35 14.3 11.4 14.2 11.25 14.15 11.15 14.2 11.0 14.2 10.9 14.1 10.95 14.0 11.1 13.95 11.4 13.8 11.7 13.6 11.7 13.4 11.65 13.25 11.55 13.1 11.55 12.95 11.9 12.5 12.0 12.3 11.95 12.15 11.85 12.1 11.35 12.25 10.85 12.5 10.45 12.7 9.95 12.75 9.85 12.65 9.85 12.6 10.25 11.9 10.55 11.6 10.7 11.4 10.7 11.15 10.65 10.35 11.05 9.85 11.15 9.8 11.3 9.8 11.5 9.85 11.55 9.85 11.65 9.8 11.65 9.7 11.55 9.6 11.4 9.5 11.35 9.4 11.4 9.3 11.75 8.95 11.7 8.9 11.55 8.85 10.6 9.2 10.25 9.35 10.05 9.3 10.0 9.25 10.0 9.15 10.1 9.05 10.2 9.0 10.95 8.8 11.4 8.6 11.55 8.1 11.65 7.6 11.65 7.35 11.5 7.15 11.35 7.05 11.1 7.1 10.4 7.0 10.35 6.9 10.4 6.8 10.7 6.7 10.9 6.6 11.0 6.35 11.1 6.2 11.25 6.1 11.5 5.95 11.75 5.75 11.95 5.35 12.1 4.95 12.05 4.85 11.95 4.85 10.85 4.65 10.7 4.6 10.6 4.5 10.55 4.35 10.65 4.2 10.8 4.2 11.15 4.3 11.5 4.45 11.8 4.45 12.15 4.35 12.3 4.15 12.25 3.9 12.2 3.8 12.2 3.65 12.3 3.65 12.75 3.6 13.15 3.45 13.3 3.3 13.3 3.1 13.1 2.9 12.95 2.7 12.95 2.6 13.0 2.45 13.35 2.5 13.7 2.6 13.95 2.5 14.25 2.3 14.4 2.0 14.45 1.9 14.65 1.75 15.35 1.85 15.65 1.85 15.85 1.7 16.3 1.25 16.45 1.1 16.65 1.1 16.85 1.25 17.2 1.35 17.45 1.3 17.6 1.1 17.65 0.5 17.6 0.05 17.65 0.0 17.75 0.05 17.85 0.15 17.95 0.95 18.0 1.1 18.1 1.25 18.25 1.2 Q18.35 1.05 18.45 1.05 L18.8 1.05 19.05 0.7 19.2 0.55 19.25 0.55 19.35 0.6 19.35 0.85 19.35 1.1 19.6 1.35 19.75 1.45 19.9 1.6 20.15 1.65 20.3 1.65 20.4 1.5 M32.35 4.3 L32.2 4.35 Q31.55 4.2 30.95 3.85 L30.75 3.6 30.85 3.5 31.0 3.45 31.15 3.5 32.25 4.15 32.35 4.2 32.35 4.3" fill="#000000" fill-rule="evenodd" stroke="none"/>
  </g>
</svg>
