<?xml version="1.0" encoding="UTF-8" standalone="no"?>
<svg xmlns:ffdec="https://www.free-decompiler.com/flash" xmlns:xlink="http://www.w3.org/1999/xlink" ffdec:objectType="shape" height="82.25px" width="54.7px" xmlns="http://www.w3.org/2000/svg">
  <g transform="matrix(1.0, 0.0, 0.0, 1.0, 0.0, 0.0)">
    <path d="M40.9 2.05 Q41.25 2.15 41.55 2.4 L42.0 3.0 42.15 3.75 42.05 4.45 41.5 5.0 40.8 5.25 40.2 5.2 39.75 4.95 39.5 4.4 Q39.55 3.8 39.9 4.0 40.2 4.2 40.05 4.55 L40.05 4.7 40.25 4.95 40.85 5.0 41.45 4.8 41.85 4.35 42.05 3.75 41.8 2.95 41.25 2.4 40.45 2.15 Q40.05 2.15 39.7 2.4 L38.7 3.4 38.5 3.8 38.55 4.65 38.1 6.45 37.15 8.0 Q36.0 9.4 34.5 10.3 L32.8 11.3 33.45 11.2 34.85 11.0 36.25 11.0 37.6 11.25 38.15 10.85 Q38.4 10.6 38.25 10.25 L38.1 9.95 Q37.95 9.8 37.8 9.8 L37.45 9.7 37.1 9.8 36.85 10.0 36.8 10.3 36.9 10.55 37.0 10.6 37.05 10.5 37.15 10.45 37.4 10.6 37.55 10.85 37.15 11.05 36.8 10.9 36.6 10.65 36.5 10.3 36.65 9.95 37.0 9.65 37.45 9.55 37.95 9.65 38.3 9.95 Q38.55 10.4 38.35 10.8 L37.75 11.3 40.8 12.5 43.55 14.2 Q47.25 17.05 51.3 19.5 L53.75 20.85 54.7 21.3 53.75 20.9 51.15 19.65 Q47.05 17.4 43.35 14.5 41.25 13.0 38.9 12.0 L38.85 12.0 38.8 12.05 39.9 12.55 Q41.5 13.45 42.6 14.65 L44.5 16.7 45.8 18.0 46.3 18.5 45.75 18.0 44.35 16.8 40.75 13.55 42.3 15.2 Q43.55 16.95 44.0 19.05 44.45 21.05 44.0 23.2 43.65 25.35 42.25 26.9 40.9 28.5 38.8 29.2 L36.7 29.55 36.2 29.6 Q34.75 29.65 33.45 29.1 32.15 28.55 31.2 27.4 29.95 25.6 30.15 23.5 30.35 21.4 31.95 19.85 32.7 19.1 33.7 18.85 34.7 18.55 35.7 18.85 36.7 19.3 37.2 20.25 L37.55 21.15 37.15 20.25 Q36.65 19.3 35.7 18.9 34.7 18.6 33.7 18.9 32.75 19.2 32.0 19.95 30.45 21.45 30.25 23.5 30.05 25.55 31.3 27.35 32.65 28.95 34.75 29.25 L38.75 29.0 Q40.75 28.3 42.05 26.75 43.35 25.2 43.75 23.1 44.1 21.05 43.65 19.1 43.25 17.1 42.05 15.45 40.8 13.8 39.0 12.8 37.25 11.8 35.2 11.7 L32.3 12.1 Q30.9 12.55 29.7 13.4 L31.8 12.75 34.05 12.6 36.55 13.1 Q37.75 13.55 38.8 14.35 39.9 15.1 40.6 16.25 41.3 17.35 41.5 18.65 L41.5 20.95 Q41.3 22.15 40.75 23.15 L39.75 24.55 38.4 25.6 36.9 26.1 35.9 26.25 34.85 26.15 33.45 25.3 Q32.85 24.7 32.65 23.8 32.5 22.8 32.8 22.4 33.15 22.05 33.45 22.25 L33.8 22.95 33.85 24.2 Q33.85 24.7 34.1 25.0 L34.85 25.5 36.7 25.65 38.45 25.0 Q39.6 24.3 40.3 23.25 40.95 22.15 41.15 20.85 41.4 19.45 41.05 18.05 40.7 16.65 39.75 15.55 38.8 14.5 37.5 13.8 36.25 13.15 34.85 12.9 33.65 12.75 32.45 12.9 31.25 13.0 30.1 13.45 L29.0 13.95 27.95 14.8 Q26.5 16.25 25.4 17.95 24.3 19.65 23.55 21.55 22.5 24.2 21.9 27.0 L21.75 27.6 Q20.95 31.25 20.9 34.95 L20.85 36.6 20.9 37.6 21.0 39.6 21.1 40.25 21.4 41.9 21.6 42.8 22.4 45.85 23.05 47.9 23.7 49.6 24.2 50.9 24.2 50.95 25.55 54.4 26.2 56.1 27.35 58.95 27.4 59.05 28.45 62.05 28.7 62.75 29.3 64.85 29.85 67.55 29.95 68.0 30.05 68.9 30.15 70.5 30.2 73.5 30.2 73.75 30.25 73.45 30.5 70.7 30.45 69.7 30.2 67.75 30.1 67.05 29.65 65.15 29.45 64.3 29.3 63.75 29.0 62.7 28.45 61.0 27.95 59.35 27.8 58.95 27.6 58.15 26.45 54.65 26.3 54.25 24.95 50.55 24.65 49.8 24.35 49.1 24.15 48.5 23.9 47.7 23.7 47.2 23.25 45.8 22.75 44.3 22.3 42.4 21.9 39.85 21.9 39.75 21.75 37.4 Q21.75 35.7 22.05 33.95 22.15 33.3 22.4 32.6 L22.6 31.85 Q23.0 30.65 23.8 29.65 24.45 28.7 25.45 28.25 26.45 27.8 27.6 27.85 L27.75 27.9 28.5 28.05 29.6 28.55 Q30.1 28.85 30.45 29.35 L30.5 29.45 30.8 30.2 30.8 31.0 30.75 31.25 30.35 32.2 29.6 33.0 29.2 33.25 28.75 33.35 28.35 33.3 27.8 33.05 27.4 32.65 27.25 32.5 27.05 31.95 27.0 31.4 27.2 30.75 27.5 30.7 27.8 31.1 28.2 31.75 28.35 31.9 28.5 32.05 28.75 32.1 28.85 32.1 29.35 31.8 29.7 31.3 30.0 30.7 29.95 30.05 29.2 29.05 Q28.75 28.65 28.05 28.5 27.15 28.3 26.25 28.5 25.4 28.75 24.7 29.4 L23.75 30.6 Q23.3 31.25 23.1 31.95 L22.6 33.45 22.5 34.1 Q22.2 35.6 22.15 37.2 L22.3 40.05 22.3 40.55 22.6 40.1 Q22.8 39.85 23.1 39.75 L23.65 39.6 23.75 39.6 Q23.95 39.6 24.15 39.75 L24.5 40.0 24.8 40.55 24.75 41.1 24.45 41.5 23.9 41.7 23.35 41.55 22.95 41.25 Q22.7 40.95 23.1 40.8 23.45 40.75 23.45 41.1 L23.5 41.25 23.85 41.45 24.2 41.4 24.55 41.1 24.65 40.65 24.4 40.15 23.95 39.8 23.5 39.7 23.1 39.8 22.8 40.05 Q22.5 40.3 22.4 40.7 L22.35 40.75 22.6 42.35 23.2 44.5 23.5 45.65 23.75 46.3 24.45 48.35 25.25 50.5 25.35 50.75 25.35 50.5 25.4 49.45 25.7 48.7 26.3 47.85 27.15 47.25 28.2 46.95 29.3 47.1 29.4 47.1 30.05 47.65 30.4 48.35 30.45 49.4 30.2 50.05 29.85 50.55 29.4 50.95 28.85 51.15 27.95 51.0 27.25 50.45 26.95 49.65 26.95 49.15 27.1 48.6 27.35 48.1 Q27.55 47.85 27.85 47.75 L28.45 47.75 28.85 47.9 29.05 48.15 29.1 48.35 29.0 48.45 28.6 48.45 28.05 48.2 27.8 48.2 27.4 48.6 Q27.15 49.1 27.2 49.55 27.2 50.05 27.5 50.5 L28.0 50.85 28.6 51.0 29.25 50.8 29.8 50.35 30.05 50.05 30.35 49.2 30.2 48.3 29.85 47.65 29.4 47.25 28.3 47.05 27.15 47.4 27.1 47.4 26.4 47.95 25.85 48.65 25.55 49.3 25.4 50.5 25.4 50.9 26.6 54.1 26.65 54.25 27.25 56.25 27.5 56.95 28.05 58.9 28.65 60.75 29.2 62.55 29.4 63.1 29.85 64.85 30.1 65.65 30.2 66.45 30.45 67.6 30.5 67.95 30.7 70.75 30.5 73.3 30.45 73.6 30.65 73.3 31.25 72.2 31.9 70.75 32.6 68.15 32.7 67.7 32.75 67.55 Q33.05 66.15 33.5 64.8 L34.25 62.55 35.4 59.85 35.7 59.2 35.75 59.05 37.25 56.45 37.35 56.3 37.6 55.85 37.95 55.15 38.2 54.35 38.3 53.2 38.15 52.4 37.5 51.2 36.3 50.05 35.45 49.6 Q34.65 49.25 33.85 49.25 L32.25 49.4 32.0 49.5 31.0 50.05 30.2 50.9 Q29.9 51.3 29.75 51.8 L29.65 52.85 29.8 53.7 Q30.0 54.45 30.5 54.95 31.0 55.5 31.75 55.8 L32.3 55.95 33.45 55.85 34.4 55.35 35.2 54.35 35.3 54.15 35.45 53.35 35.45 52.75 35.1 52.15 Q34.8 51.85 34.4 51.8 L33.7 52.0 32.85 52.4 32.5 52.4 32.25 52.2 32.2 51.8 32.45 51.4 32.5 51.35 32.9 51.0 33.5 50.85 34.1 50.9 34.7 51.05 Q35.1 51.2 35.35 51.5 L35.9 52.4 36.0 53.05 35.95 53.7 35.55 54.8 35.05 55.4 34.4 55.9 33.55 56.25 32.6 56.35 31.3 56.0 30.2 55.15 Q29.65 54.5 29.4 53.65 29.15 52.6 29.55 51.6 29.85 50.6 30.75 49.95 31.45 49.35 32.35 49.15 L33.9 49.0 35.4 49.35 35.75 49.5 Q36.8 49.95 37.5 50.9 38.2 51.75 38.45 52.9 L38.4 54.1 38.0 55.45 37.85 55.65 38.0 55.5 38.3 55.15 39.7 53.85 41.0 52.8 42.05 52.0 Q42.3 51.8 42.6 51.7 L43.25 51.65 43.6 51.8 43.7 52.1 43.65 52.35 43.4 52.65 42.75 53.05 42.05 53.25 41.5 53.45 Q40.85 53.7 40.3 54.1 L38.25 55.95 37.65 56.65 37.55 56.8 Q36.65 58.05 36.0 59.45 L35.6 60.3 34.65 62.35 33.85 64.7 33.3 66.45 32.95 67.75 32.75 68.45 32.5 69.55 32.2 70.55 31.8 71.6 30.95 73.2 30.35 74.15 30.2 74.7 31.35 73.2 29.95 80.7 29.4 81.25 29.1 81.65 Q27.5 82.3 25.9 82.25 24.3 82.15 22.8 81.45 L21.6 80.85 22.55 79.2 23.3 77.55 23.7 76.25 23.95 75.15 24.05 74.85 24.15 73.9 24.25 73.1 24.35 71.8 24.3 70.9 24.2 70.45 23.9 68.45 23.8 68.2 23.25 66.2 22.7 64.4 22.25 62.95 20.8 59.2 19.05 55.6 17.3 53.05 16.25 51.8 15.8 51.3 15.55 51.05 15.05 50.55 Q14.3 49.8 13.4 49.25 L12.05 48.6 10.6 48.35 10.3 48.3 9.95 48.25 Q8.6 48.15 8.75 47.85 9.15 47.65 9.55 47.6 L10.35 47.65 11.15 47.9 11.25 47.95 11.4 47.95 11.8 48.1 11.55 47.85 11.05 47.25 10.85 46.55 11.1 45.9 11.6 45.35 Q11.9 45.1 12.3 45.1 L12.9 45.25 13.15 45.5 13.25 45.6 13.4 46.2 13.3 46.8 12.8 46.75 Q12.7 46.35 13.0 46.35 L13.15 46.2 13.0 45.65 12.8 45.5 12.75 45.4 12.3 45.3 11.85 45.4 11.4 45.75 11.1 46.25 11.15 47.1 11.7 47.85 11.95 48.1 12.1 48.2 13.15 48.75 13.75 49.15 15.3 50.45 16.4 51.65 17.2 52.6 17.6 53.1 19.55 56.1 21.1 59.4 22.0 61.9 22.4 63.0 22.85 64.45 22.9 64.5 23.45 66.35 23.9 68.15 23.95 68.3 24.3 70.2 24.25 69.55 24.05 68.2 24.05 68.05 23.5 65.65 23.15 64.45 23.05 64.05 22.95 63.65 22.7 63.05 21.55 59.75 20.25 55.75 19.9 54.65 18.95 51.4 18.0 47.95 17.45 45.95 17.35 45.8 16.35 42.55 15.95 41.55 15.25 40.15 14.15 38.4 Q13.4 37.4 12.45 36.65 L11.15 35.7 9.8 35.1 8.3 34.9 7.9 34.9 Q6.7 35.0 5.65 35.55 4.55 36.1 3.75 37.05 2.95 37.85 2.4 38.95 2.0 39.6 1.85 40.4 L1.85 41.9 2.15 42.9 2.8 43.75 3.5 44.2 4.4 44.45 4.95 44.35 5.5 43.75 5.5 43.1 5.5 42.7 5.6 42.55 5.7 42.65 6.0 43.05 6.15 43.55 6.0 44.2 5.55 44.7 5.05 44.9 4.5 44.95 4.0 44.85 2.45 43.9 Q1.85 43.25 1.6 42.3 1.35 41.1 1.85 39.65 2.3 38.25 3.5 37.0 L4.0 36.45 4.15 36.3 5.75 35.2 7.6 34.7 8.3 34.65 9.45 34.85 Q10.7 35.15 11.75 35.85 L12.35 36.3 14.15 38.15 Q15.0 39.2 15.55 40.4 L15.95 41.15 16.5 42.5 16.8 43.45 17.5 45.9 18.1 48.05 19.05 51.4 20.0 54.65 20.4 55.75 21.0 57.8 21.65 59.75 22.75 62.95 21.7 58.7 20.65 54.55 20.65 54.5 20.15 52.7 19.55 50.5 19.1 48.65 18.4 45.85 18.3 45.5 17.2 42.4 16.85 41.6 15.95 39.6 15.6 38.95 14.35 37.2 13.95 36.8 12.95 35.75 11.8 34.9 10.65 34.45 9.4 34.2 6.7 34.5 Q5.4 34.9 4.3 35.7 L2.8 37.0 Q2.0 37.95 1.45 39.05 L1.35 39.35 1.05 40.25 0.95 41.7 1.15 43.1 1.75 44.65 2.55 45.55 3.6 46.25 4.8 46.7 5.9 46.85 7.1 46.7 8.05 46.4 8.7 45.9 9.25 45.25 9.8 44.2 9.8 44.1 9.95 43.5 9.95 42.35 9.65 41.1 9.0 39.85 8.3 39.3 7.45 39.0 7.25 38.95 5.9 39.05 Q5.3 39.2 4.85 39.5 L4.5 39.85 4.8 39.5 Q5.25 39.15 5.9 38.95 L7.25 38.85 7.5 38.85 8.3 39.1 9.0 39.6 9.3 39.95 9.9 41.05 10.2 41.95 10.35 42.95 10.2 44.2 9.95 44.95 9.65 45.45 9.05 46.25 8.3 46.85 7.05 47.3 5.9 47.4 4.8 47.35 3.35 46.9 2.1 46.15 2.0 46.05 1.35 45.4 0.95 44.85 0.3 43.35 0.2 42.85 0.0 41.5 Q0.0 40.8 0.15 40.15 L0.2 39.85 Q0.45 38.75 0.95 37.75 L2.05 36.1 3.45 34.75 Q4.2 34.15 5.1 33.7 6.0 33.3 7.0 33.0 L9.55 32.75 10.4 32.8 11.05 32.95 12.55 33.55 Q13.3 33.9 13.9 34.35 L12.65 33.05 11.7 31.95 11.55 31.75 10.25 29.8 9.4 27.6 Q9.2 26.4 9.55 25.25 9.85 24.05 10.6 23.1 L11.4 22.25 11.8 21.95 13.75 20.9 14.75 20.15 15.25 19.05 15.3 18.4 15.3 19.05 14.85 20.25 13.85 21.05 12.2 22.0 10.85 23.3 Q10.2 24.2 9.9 25.3 9.6 26.4 9.8 27.5 10.05 28.6 10.6 29.65 L11.8 31.55 12.75 32.75 13.65 33.75 12.75 32.45 12.05 30.45 Q11.8 29.4 11.8 28.3 11.8 27.6 11.95 26.95 L12.35 25.8 Q12.6 25.25 13.0 24.8 13.45 24.2 14.1 23.9 L15.5 23.5 16.8 23.55 17.6 23.75 18.4 24.1 19.2 24.85 19.35 25.1 Q19.75 25.7 19.8 26.4 19.8 27.35 19.45 27.55 L18.85 27.5 18.55 26.9 18.75 25.95 18.6 25.25 18.15 24.7 Q17.55 24.2 16.8 24.0 16.05 23.85 15.25 24.0 L14.45 24.15 Q14.0 24.35 13.65 24.65 L12.9 25.5 12.4 26.6 12.2 27.3 12.15 27.95 12.2 29.6 12.55 31.25 13.4 32.95 14.6 34.45 15.1 35.0 15.7 35.6 16.45 36.6 15.55 35.2 15.45 34.95 13.7 32.65 12.75 30.85 Q12.4 29.85 12.35 28.8 12.2 27.8 12.5 26.85 L12.85 26.05 13.4 25.3 13.7 25.0 Q14.15 24.6 14.75 24.45 15.45 24.25 16.05 24.45 16.7 24.7 17.1 25.25 L17.3 25.95 17.2 26.65 17.0 27.05 16.25 27.8 16.1 27.9 15.65 28.05 15.15 27.9 14.75 27.55 14.55 27.1 Q14.35 26.25 14.65 25.95 14.9 25.7 15.15 25.8 15.5 25.9 15.6 26.35 L15.7 27.15 15.65 27.25 15.75 27.25 16.1 27.1 16.4 26.85 16.7 26.3 16.8 25.75 16.35 25.1 15.65 24.85 Q15.2 24.7 14.8 24.85 14.35 24.95 14.0 25.25 L13.25 26.05 12.75 27.1 Q12.55 28.2 12.7 29.35 12.85 30.45 13.35 31.55 L15.85 35.2 16.2 35.75 16.2 35.7 Q15.55 34.25 15.15 32.6 L15.05 31.0 15.25 30.0 15.45 29.7 15.6 29.65 15.75 29.75 16.0 30.35 16.1 31.0 16.1 32.35 16.15 32.6 16.4 33.95 16.6 34.85 16.85 35.7 17.3 37.15 17.45 37.6 17.45 37.15 17.45 35.5 17.5 34.45 17.55 34.15 17.65 33.55 17.85 33.3 18.1 33.0 18.25 32.95 18.4 33.1 18.45 33.4 18.55 33.7 18.4 34.1 18.3 34.5 18.2 35.45 18.25 36.55 18.3 37.65 18.3 37.8 18.45 39.25 18.6 40.3 18.6 40.35 18.75 40.8 19.2 41.9 19.0 40.0 18.8 37.2 18.8 36.8 18.8 35.0 Q18.85 32.95 19.15 30.95 L19.4 29.3 Q19.85 26.55 20.8 23.85 22.0 20.65 23.8 17.85 L24.75 16.45 25.75 15.05 26.85 13.8 Q27.45 13.2 28.2 12.75 29.6 11.8 31.15 11.15 L34.1 9.7 36.65 7.6 Q37.8 6.3 38.0 4.6 38.05 3.75 37.75 2.95 L36.85 1.5 36.25 0.9 35.45 0.45 34.6 0.3 33.7 0.3 Q32.75 0.35 32.0 0.85 31.3 1.4 30.9 2.25 30.75 3.3 31.25 4.1 L32.35 5.5 Q31.7 4.9 31.2 4.1 30.7 3.35 30.8 2.25 31.1 1.2 31.95 0.65 32.8 0.2 33.7 0.1 L34.65 0.0 35.6 0.15 36.45 0.65 37.1 1.25 38.0 2.4 38.45 3.7 38.6 3.45 Q38.9 2.75 39.5 2.4 40.15 2.0 40.9 2.05" fill="#000000" fill-rule="evenodd" stroke="none"/>
  </g>
</svg>
